<?xml version="1.0" encoding="UTF-8"?>
<svg version="1.1" xmlns="http://www.w3.org/2000/svg" width="670" height="373">
<path d="M0 0 C3.32108349 2.3526715 6.14065862 5.1136837 9 8 C9.9075 8.86625 10.815 9.7325 11.75 10.625 C13.45055938 12.4200349 15.00893202 14.21002799 16.5625 16.125 C18.61806922 18.54951754 20.48299618 20.13555272 23 22 C23 22.66 23 23.32 23 24 C23.99 24.33 24.98 24.66 26 25 C26 25.66 26 26.32 26 27 C26.556875 27.226875 27.11375 27.45375 27.6875 27.6875 C31.68438886 29.95600449 34.53966649 32.61899946 36 37 C37.485 37.495 37.485 37.495 39 38 C40.359375 39.41796875 40.359375 39.41796875 41.75 41.1875 C43.84494631 43.73358573 45.95174117 45.90839817 48.5 48 C51.60693113 50.55703181 54.12670764 53.34903986 56.640625 56.484375 C58.1188998 58.25912951 58.1188998 58.25912951 61 60 C61 60.66 61 61.32 61 62 C61.556875 62.226875 62.11375 62.45375 62.6875 62.6875 C66.68438886 64.95600449 69.53966649 67.61899946 71 72 C72.485 72.495 72.485 72.495 74 73 C75.46484375 74.5234375 75.46484375 74.5234375 76.9375 76.375 C79.10578493 79.01911803 81.23362446 80.97841788 84 83 C84 83.66 84 84.32 84 85 C85.98 85.99 85.98 85.99 88 87 C88 87.66 88 88.32 88 89 C88.556875 89.226875 89.11375 89.45375 89.6875 89.6875 C94.2362073 92.26919874 97.93865318 96.19019074 100 101 C99.90413288 106.36855871 98.65702354 109.13980848 95 113 C94.13375 113.928125 93.2675 114.85625 92.375 115.8125 C90 118 90 118 88 118 C87.01 119.98 87.01 119.98 86 122 C85.34 122 84.68 122 84 122 C83.73703125 122.60199219 83.4740625 123.20398438 83.203125 123.82421875 C81.93420534 126.1189858 80.79869084 127.21138351 78.75 128.8125 C75.59254122 131.40659477 73.01749275 134.18846206 70.41015625 137.32421875 C65.10151188 143.63282937 65.10151188 143.63282937 61 145 C60.67 145.99 60.34 146.98 60 148 C58.58203125 149.359375 58.58203125 149.359375 56.8125 150.75 C54.26641427 152.84494631 52.09160183 154.95174117 50 157.5 C47.44296819 160.60693113 44.65096014 163.12670764 41.515625 165.640625 C39.74087049 167.1188998 39.74087049 167.1188998 38 170 C37.34 170 36.68 170 36 170 C35.773125 170.556875 35.54625 171.11375 35.3125 171.6875 C33.04399551 175.68438886 30.38100054 178.53966649 26 180 C25.67 180.99 25.34 181.98 25 183 C24.34 183 23.68 183 23 183 C22.773125 183.556875 22.54625 184.11375 22.3125 184.6875 C20.03719953 188.69636274 16.68725973 191.44720413 13.125 194.3125 C9.88006292 196.94534301 7.27931721 200.02509677 4.61328125 203.23046875 C2.01261073 206.08302019 0.43647392 206.96825644 -3.4375 207.25 C-8.54054054 206.89189189 -8.54054054 206.89189189 -11 205 C-11.33333333 203.66666667 -11.66666667 202.33333333 -12 201 C-13.88316159 199.89163577 -13.88316159 199.89163577 -16 199 C-17.75 197.5 -17.75 197.5 -19 196 C-19 195.34 -19 194.68 -19 194 C-20.175625 193.6596875 -20.175625 193.6596875 -21.375 193.3125 C-24.68762108 191.65618946 -24.74014357 190.35961714 -26 187 C-27.93330603 185.90833725 -27.93330603 185.90833725 -30 185 C-32.21235643 182.78764357 -32.92972756 181.30919874 -33.625 178.25 C-31.76821217 168.59470329 -18.35303342 159.22862181 -11.53515625 152.4375 C-10.13246609 151.03667785 -8.72999872 149.63563257 -7.32774353 148.234375 C-3.6590246 144.56945113 0.01268878 140.90754192 3.68505859 137.24627686 C7.44095978 133.50065494 11.19398711 129.75215587 14.94726562 126.00390625 C22.29538554 118.66647047 29.6466758 111.33221995 37 104 C33.51262727 98.65122368 29.91028534 94.59190445 25 90.5 C21.09873881 87.24894901 17.63025208 83.8172701 14.4375 79.875 C12.38193078 77.45048246 10.51700382 75.86444728 8 74 C8 73.34 8 72.68 8 72 C7.39671875 71.73574219 6.7934375 71.47148437 6.171875 71.19921875 C3.8957713 69.94244926 2.83181567 68.84559838 1.25 66.8125 C-1.51690868 63.44921502 -4.54046779 60.70695843 -7.8515625 57.890625 C-11.75617876 54.45456269 -15.35572419 50.70771582 -19 47 C-19.825 46.175 -20.65 45.35 -21.5 44.5 C-22.325 43.675 -23.15 42.85 -24 42 C-24.75925781 41.33355469 -25.51851563 40.66710937 -26.30078125 39.98046875 C-33.60778809 33.30984198 -33.60778809 33.30984198 -33.875 28.75 C-32.85080415 24.36058923 -31.55527461 22.70878065 -28 20 C-27.34 20 -26.68 20 -26 20 C-25.773125 19.21625 -25.54625 18.4325 -25.3125 17.625 C-23.65618946 14.31237892 -22.35961714 14.25985643 -19 13 C-17.83333333 11.08333333 -17.83333333 11.08333333 -17 9 C-15.5 7.25 -15.5 7.25 -14 6 C-13.34 6 -12.68 6 -12 6 C-11.9175 5.38125 -11.835 4.7625 -11.75 4.125 C-11 2 -11 2 -9.375 0.75 C-5.80567168 -0.37715631 -3.76018166 -0.61642322 0 0 Z " fill="#070707" transform="translate(422,83)"/>
<path d="M0 0 C2.9375 1.875 2.9375 1.875 5 4 C5 4.66 5 5.32 5 6 C5.598125 6.268125 6.19625 6.53625 6.8125 6.8125 C8.99847854 7.99917406 10.41332594 9.09599113 12 11 C12 11.66 12 12.32 12 13 C12.598125 13.268125 13.19625 13.53625 13.8125 13.8125 C15.99847854 14.99917406 17.41332594 16.09599113 19 18 C19 18.66 19 19.32 19 20 C19.598125 20.2475 20.19625 20.495 20.8125 20.75 C23.41320743 22.23611853 24.54416577 23.37949839 26 26 C26.625 28.75 26.625 28.75 26 32 C24.01968416 35.0041526 21.52726305 37.45171147 19 40 C17.9773999 41.05944751 16.95529752 42.11937557 15.93359375 43.1796875 C14.85305091 44.28791152 13.77101642 45.39468309 12.6875 46.5 C12.15995117 47.04092285 11.63240234 47.5818457 11.08886719 48.13916016 C9.7644389 49.46572324 8.38609113 50.73800504 7 52 C6.34 52 5.68 52 5 52 C4.773125 52.556875 4.54625 53.11375 4.3125 53.6875 C1.39609993 58.82591917 -3.52468425 62.27057021 -8 66 C-10.52093083 68.40088651 -12.82533581 70.78166976 -15 73.5 C-18.83127843 78.28909804 -23.30466896 82.08722414 -28 86 C-30.68888162 88.55771666 -33.12323583 91.14788299 -35.5 94 C-38 97 -38 97 -40.8125 99.6875 C-43.34359993 101.83269956 -43.34359993 101.83269956 -43 105 C-41.63690475 106.72856265 -41.63690475 106.72856265 -39.8125 108.375 C-39.17570312 108.98730469 -38.53890625 109.59960938 -37.8828125 110.23046875 C-37.26148438 110.81441406 -36.64015625 111.39835937 -36 112 C-30.54177898 117.21563342 -30.54177898 117.21563342 -29 121 C-28.34 121 -27.68 121 -27 121 C-25.28769752 122.61974559 -23.62836738 124.2958946 -22 126 C-20.33728567 127.6707724 -18.67016254 129.33669171 -17 131 C-16.32022095 131.67735199 -15.64044189 132.35470398 -14.94006348 133.05258179 C-13.31200628 134.67473348 -11.68384559 136.29678132 -10.05560303 137.91874695 C-6.77324238 141.18953481 -3.49270885 144.46215119 -0.21279526 147.73539257 C2.27512031 150.2180621 4.76397627 152.69977445 7.25488281 155.17944336 C10.13621597 158.04786772 13.01352486 160.92029856 15.890625 163.79296875 C16.78847717 164.68565964 17.68632935 165.57835052 18.61138916 166.49809265 C19.43604675 167.32267471 20.26070435 168.14725677 21.11035156 168.99682617 C21.83917542 169.72342941 22.56799927 170.45003265 23.31890869 171.19865417 C25.6719272 173.71999257 25.97842128 174.80938793 26.375 178.3125 C26 182 26 182 23.625 184.9375 C21 187 21 187 19 187 C18.773125 187.78375 18.54625 188.5675 18.3125 189.375 C16.65618946 192.68762108 15.35961714 192.74014357 12 194 C10.75825204 195.9001177 10.75825204 195.9001177 10 198 C9.34 198.99 8.68 199.98 8 201 C7.01 201 6.02 201 5 201 C4.9175 201.61875 4.835 202.2375 4.75 202.875 C4 205 4 205 2.375 206.25 C-1.12534889 207.35537333 -3.32481743 207.55127739 -7 207 C-9.98752251 204.97802659 -12.46815222 202.5586682 -15 200 C-15.86625 199.175 -16.7325 198.35 -17.625 197.5 C-19.52155655 195.50362468 -21.29486578 193.48205526 -23.0625 191.375 C-25.18581259 188.84567932 -27.32852396 186.95223249 -30 185 C-30 184.34 -30 183.68 -30 183 C-30.99 182.67 -31.98 182.34 -33 182 C-33 181.34 -33 180.68 -33 180 C-33.8353125 179.6596875 -33.8353125 179.6596875 -34.6875 179.3125 C-38.68438886 177.04399551 -41.53966649 174.38100054 -43 170 C-43.99 169.67 -44.98 169.34 -46 169 C-47.359375 167.58203125 -47.359375 167.58203125 -48.75 165.8125 C-50.84494631 163.26641427 -52.95174117 161.09160183 -55.5 159 C-58.60693113 156.44296819 -61.12670764 153.65096014 -63.640625 150.515625 C-65.1188998 148.74087049 -65.1188998 148.74087049 -68 147 C-68 146.34 -68 145.68 -68 145 C-68.60199219 144.73703125 -69.20398438 144.4740625 -69.82421875 144.203125 C-72.1189858 142.93420534 -73.21138351 141.79869084 -74.8125 139.75 C-77.40659477 136.59254122 -80.18846206 134.01749275 -83.32421875 131.41015625 C-89.63282937 126.10151188 -89.63282937 126.10151188 -91 122 C-93.00016466 120.79117904 -93.00016466 120.79117904 -95 120 C-95 119.34 -95 118.68 -95 118 C-95.556875 117.773125 -96.11375 117.54625 -96.6875 117.3125 C-101.22294735 114.73832718 -104.98449555 110.81481619 -107 106 C-107.25242905 103.11761253 -107.01076459 100.71746545 -106 98 C-103.125 95.25 -103.125 95.25 -100 93 C-98.99426222 91.67098936 -97.99204592 90.33926199 -97 89 C-96.34 89 -95.68 89 -95 89 C-94.34 87.68 -93.68 86.36 -93 85 C-92.34 85 -91.68 85 -91 85 C-90.7421875 84.40316406 -90.484375 83.80632812 -90.21875 83.19140625 C-88.89941578 80.81914183 -87.6125068 79.61586875 -85.5 77.9375 C-83.06335088 75.99127814 -81.77737879 74.66606818 -80 72 C-79.34 72 -78.68 72 -78 72 C-77.773125 71.443125 -77.54625 70.88625 -77.3125 70.3125 C-75.04399551 66.31561114 -72.38100054 63.46033351 -68 62 C-67.67 61.01 -67.34 60.02 -67 59 C-65.58203125 57.640625 -65.58203125 57.640625 -63.8125 56.25 C-61.26641427 54.15505369 -59.09160183 52.04825883 -57 49.5 C-54.44296819 46.39306887 -51.65096014 43.87329236 -48.515625 41.359375 C-46.74087049 39.8811002 -46.74087049 39.8811002 -45 37 C-44.34 37 -43.68 37 -43 37 C-42.773125 36.443125 -42.54625 35.88625 -42.3125 35.3125 C-40.04399551 31.31561114 -37.38100054 28.46033351 -33 27 C-32.505 25.515 -32.505 25.515 -32 24 C-31.34 24 -30.68 24 -30 24 C-29.773125 23.443125 -29.54625 22.88625 -29.3125 22.3125 C-27.03719953 18.30363726 -23.68725973 15.55279587 -20.125 12.6875 C-16.88006292 10.05465699 -14.27931721 6.97490323 -11.61328125 3.76953125 C-7.9807609 -0.21480705 -5.20915768 -0.53887838 0 0 Z " fill="#070707" transform="translate(255,83)"/>
<path d="M0 0 C4.67588568 2.99687524 4.67588568 2.99687524 5.69921875 6.1640625 C5.6611061 14.16771985 3.24689023 20.97216804 0.58984375 28.41796875 C-0.8904793 32.58548568 -2.09617219 36.77861481 -3.1875 41.0625 C-4.16510853 44.86074952 -5.14563777 48.60916161 -6.4375 52.3125 C-8.7673633 59.02351929 -10.5049398 65.92565527 -12.38574219 72.77246094 C-14.74633023 81.33287639 -17.23984031 89.84613801 -19.8671875 98.328125 C-23.48119598 110.0424973 -26.97668323 121.76182661 -30.0703125 133.625 C-31.21381889 137.77621648 -32.59378008 141.82116573 -33.99609375 145.890625 C-35.15412966 149.47738215 -36.12010694 153.10233159 -37.0625 156.75 C-38.07432293 160.64314684 -39.07076798 164.45040052 -40.5625 168.1875 C-41.75275213 171.16946145 -42.56530492 174.12655082 -43.3125 177.25 C-46.01981873 188.47824823 -49.44965564 199.5739934 -53.1875 210.5 C-54.43539211 214.16218133 -55.47939385 217.79888341 -56.375 221.5625 C-57.85979911 227.7532198 -59.77937652 233.77310343 -61.72680664 239.82983398 C-63.71154774 246.01981897 -65.52222716 252.23733637 -67.23828125 258.5078125 C-68 261 -68 261 -69 262 C-69.3224271 263.55644353 -69.60799418 265.12059745 -69.875 266.6875 C-70.82521417 271.57132134 -71.73809818 276.14200922 -75.75 279.4375 C-79.0264191 280.25660478 -81.76298384 279.688846 -85 279 C-86.03382813 278.78988281 -87.06765625 278.57976562 -88.1328125 278.36328125 C-99.40237117 275.93737397 -99.40237117 275.93737397 -104 273 C-107.04839468 266.90321065 -105.09452571 259.68572361 -103.05419922 253.55273438 C-102.24119533 251.22478882 -101.41703857 248.9010627 -100.58984375 246.578125 C-98.68850688 241.22421253 -97.27701494 235.79738841 -95.85546875 230.296875 C-94.31572455 224.36288365 -92.49161107 218.528171 -90.62109375 212.69140625 C-87.85256189 204.03500656 -85.20783428 195.39778071 -82.95703125 186.58984375 C-81.74070984 182.02739732 -80.37347662 177.51718311 -79 173 C-78.54644964 171.49752417 -78.09331209 169.99492365 -77.640625 168.4921875 C-77.41560303 167.74565918 -77.19058105 166.99913086 -76.95874023 166.22998047 C-72.02448387 149.83458367 -67.0972011 133.42741996 -62.68530273 116.88232422 C-61.79236687 113.59154936 -60.80291873 110.4211026 -59.546875 107.25 C-58.29434277 104.00775788 -57.40414894 100.77337815 -56.58984375 97.39453125 C-54.89941918 90.38757294 -52.74217989 83.55523233 -50.5625 76.6875 C-47.83047953 68.01118405 -45.20962007 59.34226897 -42.95703125 50.52734375 C-41.5399661 45.30444648 -39.8764359 40.16516635 -38.22119141 35.01367188 C-36.25449488 28.87607069 -34.46314988 22.70923121 -32.76171875 16.4921875 C-32 14 -32 14 -31 13 C-30.6775729 11.44355647 -30.39200582 9.87940255 -30.125 8.3125 C-29.17711355 3.44064244 -28.24674454 -1.0861065 -24.3125 -4.4375 C-16.70278576 -6.28851157 -7.06477734 -2.65878717 0 0 Z " fill="#090909" transform="translate(385,49)"/>
<path d="M0 0 C0.33 0.99 0.66 1.98 1 3 C0.14535156 3.80824219 -0.70929688 4.61648437 -1.58984375 5.44921875 C-2.7062542 6.5281028 -3.8221108 7.60756017 -4.9375 8.6875 C-5.50146484 9.21794922 -6.06542969 9.74839844 -6.64648438 10.29492188 C-9.78778253 13.36097936 -11.73537014 15.39885498 -12 20 C-12.33 20 -12.66 20 -13 20 C-13.55845334 16.80883803 -13.50923202 14.74392157 -11.65234375 12.03125 C-9.83048773 9.94912883 -7.9504072 7.96208629 -6 6 C-5.40574219 5.3915625 -4.81148438 4.783125 -4.19921875 4.15625 C-2.81490633 2.75541833 -1.40968166 1.37529918 0 0 Z " fill="#656565" transform="translate(402,244)"/>
<path d="M0 0 C0.66 0 1.32 0 2 0 C0.46356148 3.68069887 -1.78150945 5.98775204 -4.625 8.75 C-5.85089844 9.94882813 -5.85089844 9.94882813 -7.1015625 11.171875 C-7.72804687 11.77515625 -8.35453125 12.3784375 -9 13 C-9.66 12.67 -10.32 12.34 -11 12 C-9.88200014 10.66079162 -8.75538103 9.32877444 -7.625 8 C-6.99851563 7.2575 -6.37203125 6.515 -5.7265625 5.75 C-5.15679687 5.1725 -4.58703125 4.595 -4 4 C-3.34 4 -2.68 4 -2 4 C-1.34 2.68 -0.68 1.36 0 0 Z " fill="#4F4F4F" transform="translate(214,116)"/>
<path d="M0 0 C1 2 1 2 0.5 3.8125 C-1.71174733 7.03796486 -4.75550422 8.88327013 -8 11 C-7.21114978 6.75439037 -5.42044484 5.58619 -2 3 C-1.34 2.01 -0.68 1.02 0 0 Z " fill="#585858" transform="translate(157,173)"/>
<path d="M0 0 C0 3 0 3 -1.53125 4.82421875 C-2.1809375 5.43910156 -2.830625 6.05398437 -3.5 6.6875 C-4.1496875 7.31011719 -4.799375 7.93273437 -5.46875 8.57421875 C-5.9740625 9.04472656 -6.479375 9.51523438 -7 10 C-7.66 9.67 -8.32 9.34 -9 9 C-7.71937515 7.2925002 -6.38232443 5.62626404 -5 4 C-4.34 4 -3.68 4 -3 4 C-2.67 3.01 -2.34 2.02 -2 1 C-1.34 0.67 -0.68 0.34 0 0 Z " fill="#575757" transform="translate(190,141)"/>
<path d="M0 0 C0.66 0 1.32 0 2 0 C0.55922954 3.36179774 -1.24750021 5.59156268 -4 8 C-4.66 8 -5.32 8 -6 8 C-5.34 6.68 -4.68 5.36 -4 4 C-3.34 4 -2.68 4 -2 4 C-1.34 2.68 -0.68 1.36 0 0 Z " fill="#4E4E4E" transform="translate(166,164)"/>
<path d="M0 0 C0 3 0 3 -2.375 5.6875 C-5 8 -5 8 -7 8 C-5.50902342 4.2047869 -3.24299151 2.38957269 0 0 Z " fill="#595959" transform="translate(238,93)"/>
</svg>
